<svg width="198" height="40" viewBox="0 0 198 40" fill="none" xmlns="http://www.w3.org/2000/svg">
<g clip-path="url(#clip0_2058_3315)">
<path d="M123.993 18.6651L123.007 14.8716C123.007 14.786 123.086 14.7176 123.178 14.7176H124.861C125.026 14.7176 125.163 14.8374 125.163 14.9914L125.739 18.7792C125.739 18.802 125.716 18.8248 125.688 18.8248H124.165C124.068 18.8191 123.993 18.7507 123.993 18.6651ZM133.868 14.7233C133.771 14.7233 133.697 14.7917 133.697 14.8773L132.704 18.6708C132.704 18.7564 132.784 18.8248 132.881 18.8248H134.564C134.729 18.8248 134.866 18.705 134.866 18.5567L135.437 14.7689C135.437 14.7461 135.414 14.7233 135.391 14.7233H133.868ZM139.852 9.52076L139.567 10.3935C139.567 10.3935 139.418 10.8442 138.979 10.6388C137.399 10.0399 136.036 9.37244 134.849 8.67649V9.5721C134.849 9.69189 134.752 9.78887 134.632 9.78887H130.599V12.0193H136.498C136.617 12.0193 136.714 12.1163 136.714 12.2361V13.3998C136.714 13.5196 136.617 13.6166 136.498 13.6166H130.599V19.6063H138.745C138.865 19.6063 138.962 19.7033 138.962 19.8231V20.9868C138.962 21.1066 138.865 21.2036 138.745 21.2036H119.704C119.584 21.2036 119.487 21.1066 119.487 20.9868V19.8231C119.487 19.7033 119.584 19.6063 119.704 19.6063H127.85V13.6166H121.951C121.831 13.6166 121.734 13.5196 121.734 13.3998V12.2361C121.734 12.1163 121.831 12.0193 121.951 12.0193H127.85V9.78887H123.817C123.697 9.78887 123.6 9.69189 123.6 9.5721V8.67649C122.413 9.37244 121.044 10.0456 119.47 10.6388C119.03 10.8442 118.882 10.3935 118.882 10.3935L118.597 9.52076C118.597 9.52076 118.546 9.14997 118.951 9.03588C123.645 7.06782 126.076 3.95316 127.519 2.09349C127.724 1.81967 128.095 1.76263 128.272 1.75122C128.266 1.75122 128.272 1.75122 128.266 1.75122H128.335C128.352 1.75122 128.363 1.75122 128.363 1.75122H130.097C130.097 1.75122 130.109 1.75122 130.126 1.75122H130.194C130.189 1.75122 130.189 1.75122 130.189 1.75122C130.365 1.76263 130.736 1.81967 130.941 2.09349C132.379 3.95316 134.815 7.07353 139.51 9.03588C139.903 9.14997 139.852 9.52076 139.852 9.52076ZM134.062 8.19731C131.774 6.73126 130.24 5.17963 129.224 3.94746C128.209 5.17963 126.675 6.73126 124.381 8.19731H134.062Z" fill="black"/>
<path d="M157.251 6.68001C157.513 6.68001 157.484 6.90249 157.484 6.90249C157.484 9.98862 155.944 11.5631 152.841 12.5842C152.584 12.6869 152.613 12.4359 152.613 12.4359V11.3634C152.613 11.3634 152.613 11.2379 152.778 11.1695C154.587 10.3936 155.185 9.16147 155.351 6.89678C155.351 6.6629 155.636 6.68001 155.636 6.68001C155.636 6.68001 157.131 6.68001 157.251 6.68001ZM152.185 8.00346H153.451C153.594 8.00346 153.719 7.88366 153.719 7.72964V5.522V5.41931H163.046V7.14778V7.72964C163.046 7.87796 163.166 8.00346 163.314 8.00346H164.581C164.723 8.00346 164.849 7.88366 164.849 7.72964V5.03711C164.849 4.36969 164.336 3.82776 163.697 3.82776H159.555V2.19056C159.555 2.04225 159.435 1.91675 159.287 1.91675H157.473C157.325 1.91675 157.205 2.03654 157.205 2.19056V3.82205H152.179C152.031 3.82205 151.911 3.94185 151.911 4.09016V4.42673V4.7633V7.72964C151.917 7.87796 152.037 8.00346 152.185 8.00346ZM165.111 19.5608H159.544V15.1683H163.896C164.016 15.1683 164.113 15.0713 164.113 14.9515V13.7878C164.113 13.668 164.016 13.5711 163.896 13.5711H152.841C152.721 13.5711 152.624 13.668 152.624 13.7878V14.9515C152.624 15.0713 152.721 15.1683 152.841 15.1683H157.193V19.5608H151.626C151.506 19.5608 151.409 19.6578 151.409 19.7776V20.9413C151.409 21.0611 151.506 21.158 151.626 21.158H165.106C165.225 21.158 165.322 21.0611 165.322 20.9413V19.7776C165.328 19.6635 165.237 19.5608 165.111 19.5608ZM151.118 11.8825C151.112 11.8084 151.038 11.8084 151.01 11.8198C150.394 12.1449 149.76 12.4244 149.122 12.6754V8.00346H150.89C151.038 8.00346 151.158 7.88366 151.158 7.73534V6.68001C151.158 6.53169 151.038 6.4119 150.89 6.4119H149.122V2.4872C149.122 2.33888 149.002 2.21909 148.853 2.21909H147.051C146.903 2.21909 146.788 2.33888 146.788 2.4872V6.4119H144.427C144.278 6.4119 144.159 6.53169 144.159 6.68001V7.73534C144.159 7.88366 144.278 8.00346 144.427 8.00346H146.788L146.783 13.4798C145.944 13.7365 145.094 13.9704 144.239 14.21C144.147 14.2271 144.13 14.3126 144.159 14.3811C144.347 14.7861 144.718 15.6133 144.849 15.9099C144.9 16.0126 144.952 16.081 145.117 16.0183C145.636 15.8414 146.201 15.619 146.777 15.368V19.093C146.766 19.6749 146.652 19.9943 145.693 19.9943H144.718C144.649 19.9943 144.638 20.04 144.638 20.0571V21.2037C144.638 21.3235 144.735 21.4205 144.855 21.4205H146.401C148.814 21.4205 149.116 21.1067 149.116 19.1215V14.2613C149.886 13.8734 150.622 13.4741 151.255 13.1033C151.324 13.0576 151.346 13.0462 151.324 12.915L151.118 11.8825ZM159.857 11.5231C160.297 11.9909 161.209 11.9795 161.808 11.9795H163.885C164.005 11.9795 164.102 11.8825 164.102 11.7627V10.4678C164.102 10.4678 164.113 10.3879 164.022 10.3879H162.054C161.517 10.3366 161.523 10.3708 161.489 9.61783V6.87967C161.489 6.87967 161.506 6.6686 161.301 6.6686H159.692C159.407 6.6686 159.418 6.87967 159.418 6.87967V9.66347C159.413 10.2738 159.407 11.044 159.857 11.5231Z" fill="black"/>
<path d="M86.4748 2.09912H67.5415C66.8969 2.09912 66.3721 2.61823 66.3721 3.26284V20.2509C66.3721 20.8955 66.8912 21.4203 67.5358 21.4203H86.4691C87.1137 21.4203 87.6328 20.8955 87.6328 20.2566L87.6385 3.26854C87.6385 2.62964 87.1194 2.09912 86.4748 2.09912ZM80.1998 3.51954H81.8313C81.9169 3.95309 82.0367 4.62622 82.1564 5.45337H80.2397C80.1884 4.56347 80.1884 3.89034 80.1998 3.51954ZM69.0247 3.51954H78.1291C78.1405 3.88463 78.169 4.56347 78.2603 5.45337H69.0247V3.51954ZM84.9916 19.9999H69.019L69.0247 6.8852H78.4257C78.7166 9.01869 79.2871 11.774 80.4109 14.341C79.4411 15.7386 78.2888 17.0107 76.9539 17.9234C76.8398 17.9976 76.9197 18.1231 76.9197 18.1231L77.3475 18.9445C77.3475 18.9445 77.4103 19.11 77.5472 19.0073C78.9505 18.2143 80.1485 17.1248 81.1753 15.8926C81.8655 17.1362 82.7155 18.2828 83.7537 19.2355C83.8621 19.3553 83.9648 19.264 83.9648 19.264L84.6094 18.4996C84.6094 18.4996 84.695 18.4311 84.598 18.3399C83.6054 17.1647 82.8353 15.8413 82.242 14.4836C82.9779 13.4169 83.6054 12.2931 84.1416 11.1864C84.2329 11.0039 84.0732 10.9468 84.0732 10.9468L82.7098 10.3992C82.7098 10.3992 82.5558 10.3364 82.4987 10.4904C82.2135 11.175 81.8769 11.8709 81.5061 12.5555C80.8444 10.519 80.5078 8.51099 80.3424 6.8852H83.7822C83.7822 6.8852 84.2728 6.8852 84.25 6.28052C84.0503 5.20237 83.8564 4.12993 83.7423 3.51954H84.9916V19.9999ZM77.5928 16.1322C75.4251 17.0963 71.8997 17.8436 70.2568 17.912C70.2568 17.912 70.2568 17.912 70.2511 17.912H70.2397C70.1199 17.912 70.0173 17.815 70.0173 17.6952V16.098C70.0173 15.9782 70.1142 15.8812 70.2397 15.8812H70.2511C71.7058 15.847 74.9003 15.5789 77.57 14.8088C77.57 14.8088 77.724 14.7631 77.724 14.9343V15.9325C77.7297 16.0809 77.5928 16.1322 77.5928 16.1322ZM71.1867 13.7877H76.5717C77.2106 13.7877 77.7355 13.2628 77.7355 12.6239V9.29821C77.7355 8.6536 77.2163 8.13449 76.5717 8.13449H71.1867C70.5478 8.13449 70.023 8.6536 70.023 9.29821V12.6239C70.023 13.2685 70.5421 13.7877 71.1867 13.7877ZM72.5957 9.35525H75.1627V12.5726H72.5957V9.35525Z" fill="black"/>
<path d="M104.832 13.6736V19.1214C104.832 21.1066 104.107 21.4204 101.82 21.4204H100.816C100.633 21.4204 100.485 21.2778 100.485 21.0895V20.0741C100.485 20.0741 100.474 19.9942 100.565 19.9942H101.118C102.077 19.9942 102.173 19.6748 102.185 19.0872V12.7723C102.185 12.624 102.305 12.5042 102.453 12.5042H103.674C104.313 12.5099 104.832 13.0347 104.832 13.6736ZM113.999 14.0958C112.675 13.474 111.169 12.527 110.057 11.4318H113.999C114.119 11.4318 114.216 11.3348 114.216 11.215V10.0513C114.216 9.93149 114.119 9.83451 113.999 9.83451H100.525C100.998 9.22413 101.438 8.60234 101.837 7.99766H111.455C111.575 7.99766 111.671 7.90069 111.671 7.78089V6.61717C111.671 6.49738 111.575 6.4004 111.455 6.4004H102.807C103.177 5.73868 103.503 5.11689 103.771 4.55784H113.229C113.349 4.55784 113.446 4.46087 113.446 4.34107V3.17735C113.446 3.05756 113.349 2.96058 113.229 2.96058H104.478C104.569 2.7267 104.644 2.53275 104.695 2.37872C104.769 2.16195 104.758 2.00223 104.518 1.94518C104.005 1.8368 102.955 1.62002 102.647 1.54016C102.236 1.43748 102.168 1.8482 102.168 1.8482L101.997 2.39584C101.94 2.56697 101.877 2.75522 101.803 2.95488H93.9932C93.8734 2.95488 93.7765 3.05186 93.7765 3.17165V4.33537C93.7765 4.45516 93.8734 4.55214 93.9932 4.55214H101.147C100.89 5.134 100.588 5.75009 100.245 6.3947H95.7331C95.6133 6.3947 95.5163 6.49167 95.5163 6.61147V7.77519C95.5163 7.89498 95.6133 7.99196 95.7331 7.99196H99.3212C98.9333 8.60804 98.5112 9.22984 98.0491 9.82881H93.149C93.0292 9.82881 92.9322 9.92579 92.9322 10.0456V11.2093C92.9322 11.3291 93.0292 11.4261 93.149 11.4261H96.6858C95.6361 12.5156 94.4553 13.4626 93.1318 14.0844C92.7896 14.2042 92.955 14.5065 92.955 14.5065L93.2117 15.1283C93.2117 15.1283 93.2973 15.385 93.6053 15.2652C94.4382 14.9686 95.2197 14.5693 95.9613 14.1015C97.684 14.535 99.7434 15.4592 100.257 15.6759C100.417 15.7615 100.485 15.6303 100.485 15.6303L101.107 14.3183C101.107 14.3183 101.215 14.1528 101.038 14.073C100.32 13.7592 98.7052 13.2971 97.4502 13.0176C98.0548 12.527 98.6196 11.9851 99.1501 11.4204H107.593C108.1 11.9452 108.677 12.4529 109.293 12.9264C108.289 13.3998 106.663 13.7592 105.756 13.8619C105.636 13.8733 105.59 13.9532 105.625 14.0844C105.802 14.6092 105.853 15.0142 106.024 15.5333C106.081 15.7044 106.161 15.7044 106.281 15.6759C106.88 15.5847 109.487 14.6149 110.622 13.8448C111.552 14.4209 112.539 14.9115 113.52 15.2709C113.822 15.385 113.913 15.1283 113.913 15.1283L114.17 14.5065C114.176 14.5179 114.341 14.2156 113.999 14.0958ZM101.341 17.6782C101.278 17.2104 101.261 17.2732 101.17 16.7997C101.164 16.7256 101.078 16.6343 100.958 16.6856C98.8078 17.8037 96.6686 18.357 94.3355 19.0017C94.1986 19.053 94.153 19.15 94.21 19.2698C94.3982 19.6748 94.7234 20.3878 94.8603 20.6845C94.9117 20.7872 95.0543 20.867 95.2197 20.81C97.1193 20.1654 99.5038 18.9617 101.244 17.9577C101.358 17.8836 101.363 17.8037 101.341 17.6782ZM112.487 19.0986C110.548 18.1859 108.283 17.3987 106.264 16.9366C106.07 16.8739 106.041 17.0165 106.041 17.0165L105.648 17.8722C105.648 17.8722 105.556 18.049 105.733 18.1118C107.678 18.956 109.384 19.6406 111.209 20.7301C111.398 20.81 111.62 20.8043 111.751 20.6331C112.088 20.1369 112.231 19.903 112.573 19.401C112.636 19.2869 112.601 19.1614 112.487 19.0986Z" fill="black"/>
<path d="M66.3721 33.6451C66.3721 31.466 67.1707 29.4067 70.2283 29.4067C70.9129 29.4067 71.6373 29.5436 72.1165 29.6862L71.9111 30.8385C71.432 30.6502 70.833 30.5361 70.274 30.5361C68.4485 30.5361 67.7354 31.814 67.7354 33.6679C67.7354 35.4306 68.5569 36.5316 70.3082 36.5316C70.8558 36.5316 71.6145 36.3947 72.0366 36.2407L72.1736 37.4044C71.74 37.5527 70.9585 37.6839 70.2568 37.6839C67.2392 37.6839 66.3778 35.7957 66.3778 33.6622V33.6451H66.3721ZM78.2717 37.45L77.222 37.6383C77.0167 37.3701 76.8912 37.0165 76.8398 36.6514C76.4862 37.3131 75.7617 37.6668 75.0144 37.6668C74.0903 37.6668 73.0635 37.2047 73.0635 35.79C73.0635 34.3411 73.8393 33.9018 76.6801 33.7763V33.3713C76.6801 32.7609 76.566 32.3559 75.602 32.3559C74.9916 32.3559 74.3869 32.5327 73.8107 32.8294L73.5426 31.7911C74.0903 31.5344 74.9402 31.3177 75.7503 31.3177C77.3361 31.3177 77.8552 31.9794 77.8552 33.3599V35.7044C77.8609 36.4745 77.9922 37.1191 78.2717 37.45ZM74.2329 35.7615C74.2329 36.4974 74.8433 36.6514 75.2597 36.6514C75.9956 36.6514 76.566 36.1323 76.6915 35.5447V34.7061C74.8033 34.8088 74.2329 34.9628 74.2329 35.7615ZM82.0652 36.6114V37.5527L81.4947 37.5812C80.4679 37.6326 79.8062 37.2618 79.8062 36.1494V32.5498H78.8535V31.5744H79.8062V30.2053L81.0269 29.8915V31.5687H82.2819V32.5441H81.0269V35.6759C81.0269 36.3776 81.181 36.6 81.7115 36.6H82.0652V36.6114ZM86.469 31.3918C88.015 31.3918 88.4314 32.3673 88.4314 33.4454V37.5299H87.1992V33.7535C87.1992 32.9891 86.9425 32.4186 86.0982 32.4186C85.5164 32.4186 84.9288 32.6982 84.6151 33.0804V37.5299H83.3601V29.304L84.6151 29.1157V32.1448C85.0087 31.7341 85.716 31.3918 86.469 31.3918ZM94.8433 37.45L93.7936 37.6383C93.5883 37.3701 93.4628 37.0165 93.4114 36.6514C93.0577 37.3131 92.3333 37.6668 91.586 37.6668C90.6619 37.6668 89.635 37.2047 89.635 35.79C89.635 34.3411 90.4109 33.9018 93.2517 33.7763V33.3713C93.2517 32.7609 93.1376 32.3559 92.1735 32.3559C91.5632 32.3559 90.9585 32.5327 90.3823 32.8294L90.1142 31.7911C90.6619 31.5344 91.5118 31.3177 92.3219 31.3177C93.9077 31.3177 94.4268 31.9794 94.4268 33.3599V35.7044C94.4268 36.4745 94.558 37.1191 94.8433 37.45ZM90.7988 35.7615C90.7988 36.4974 91.4091 36.6514 91.8256 36.6514C92.5615 36.6514 93.1319 36.1323 93.2574 35.5447V34.7061C91.3692 34.8088 90.7988 34.9628 90.7988 35.7615ZM99.4525 31.5116H100.822C100.325 33.0176 99.3783 35.7843 98.768 37.3188C98.2603 38.6023 97.764 39.4979 97.3076 40.0056L96.0925 39.4637C96.5603 39.0302 97.1079 38.2087 97.5643 37.1191L95.2198 31.5116H96.6117L98.1861 35.7843C98.6253 34.5293 99.1445 32.721 99.4525 31.5116Z" fill="black"/>
<path d="M104.894 37.5299V29.5721H109.196V30.6845H106.161V33.0461H108.876V34.1528H106.161V37.5299H104.894ZM111.626 30.6046H110.331V29.4637H111.626V30.6046ZM111.603 37.5299H110.348V31.5116H111.603V37.5299ZM114.256 31.4146C114.335 31.6257 114.432 31.9965 114.455 32.2019C114.849 31.7683 115.613 31.3918 116.372 31.3918C117.929 31.3918 118.34 32.3673 118.34 33.4454V37.5299H117.096V33.7535C117.096 32.9891 116.84 32.4186 115.995 32.4186C115.414 32.4186 114.826 32.6982 114.501 33.0632V37.5299H113.257V32.8122C113.257 32.3844 113.217 31.928 113.115 31.5687L114.256 31.4146ZM124.74 37.45L123.697 37.6383C123.491 37.3701 123.366 37.0165 123.314 36.6514C122.961 37.3131 122.236 37.6668 121.489 37.6668C120.565 37.6668 119.538 37.2047 119.538 35.79C119.538 34.3411 120.314 33.9018 123.155 33.7763V33.3713C123.155 32.7609 123.041 32.3559 122.076 32.3559C121.466 32.3559 120.861 32.5327 120.285 32.8294L120.017 31.7911C120.565 31.5344 121.415 31.3177 122.225 31.3177C123.811 31.3177 124.33 31.9794 124.33 33.3599V35.7044C124.33 36.4745 124.461 37.1191 124.74 37.45ZM120.702 35.7615C120.702 36.4974 121.312 36.6514 121.728 36.6514C122.464 36.6514 123.035 36.1323 123.16 35.5447V34.7061C121.266 34.8088 120.702 34.9628 120.702 35.7615ZM126.999 31.4146C127.085 31.6257 127.176 31.9965 127.199 32.2019C127.593 31.7683 128.357 31.3918 129.116 31.3918C130.673 31.3918 131.084 32.3673 131.084 33.4454V37.5299H129.84V33.7535C129.84 32.9891 129.584 32.4186 128.739 32.4186C128.157 32.4186 127.57 32.6982 127.245 33.0632V37.5299H126.001V32.8122C126.001 32.3844 125.961 31.928 125.859 31.5687L126.999 31.4146ZM132.43 34.5692C132.43 32.8807 133.092 31.3234 135.414 31.3234C135.984 31.3234 136.515 31.4375 136.823 31.5401L136.594 32.5841C136.241 32.4529 135.784 32.3787 135.431 32.3787C134.164 32.3787 133.679 33.2914 133.679 34.5749C133.679 35.8071 134.216 36.64 135.471 36.64C135.836 36.64 136.349 36.5658 136.674 36.4232L136.851 37.4899C136.572 37.5926 135.99 37.7067 135.402 37.7067C133.092 37.7067 132.424 36.1836 132.424 34.5749V34.5692H132.43ZM139.241 30.6046H137.946V29.4637H139.241V30.6046ZM139.218 37.5299H137.964V31.5116H139.218V37.5299ZM145.647 37.45L144.604 37.6383C144.398 37.3701 144.273 37.0165 144.221 36.6514C143.868 37.3131 143.143 37.6668 142.396 37.6668C141.472 37.6668 140.445 37.2047 140.445 35.79C140.445 34.3411 141.221 33.9018 144.062 33.7763V33.3713C144.062 32.7609 143.948 32.3559 142.983 32.3559C142.373 32.3559 141.768 32.5327 141.192 32.8294L140.924 31.7911C141.472 31.5344 142.322 31.3177 143.132 31.3177C144.718 31.3177 145.237 31.9794 145.237 33.3599V35.7044C145.237 36.4745 145.368 37.1191 145.647 37.45ZM141.609 35.7615C141.609 36.4974 142.219 36.6514 142.635 36.6514C143.371 36.6514 143.942 36.1323 144.067 35.5447V34.7061C142.179 34.8088 141.609 34.9628 141.609 35.7615ZM148.14 37.5299H146.885V29.304L148.14 29.1157V37.5299Z" fill="black"/>
<path d="M154.273 37.5299H152.989V29.5721H154.273V32.9149H158.089V29.5721H159.367V37.5356H158.089V34.0216H154.273V37.5299ZM166.663 34.4951C166.663 36.041 166.001 37.7466 163.748 37.7466C161.512 37.7466 160.844 36.0353 160.844 34.4837C160.844 32.9834 161.506 31.2948 163.748 31.2948C165.996 31.2948 166.663 32.9834 166.663 34.4837V34.4951ZM163.765 36.6913C164.803 36.6913 165.391 35.9782 165.391 34.4608C165.391 32.9891 164.798 32.316 163.754 32.316C162.71 32.316 162.128 32.9891 162.128 34.4608C162.128 35.9725 162.71 36.6913 163.754 36.6913H163.765ZM169.293 37.5299H168.038V29.304L169.293 29.1157V37.5299ZM173.041 37.6782C171.478 37.6782 170.679 36.5373 170.679 34.6434C170.679 32.8693 171.335 31.3462 173.218 31.3462C173.879 31.3462 174.524 31.6371 174.889 32.0079V29.304L176.104 29.1157V35.4705C176.104 36.2292 176.133 36.8681 176.355 37.3987L175.277 37.6097C175.123 37.3587 175.037 37.0108 175.009 36.7312C174.718 37.1249 174.119 37.6839 173.058 37.6839H173.041V37.6782ZM174.929 34.0387C174.929 33.7078 174.917 33.377 174.866 33.1089C174.627 32.778 174.13 32.3958 173.446 32.3958C172.328 32.3958 171.951 33.3371 171.951 34.6263C171.951 35.7558 172.322 36.64 173.309 36.64C174.159 36.64 174.678 36.0695 174.866 35.6531C174.906 35.4591 174.929 35.1283 174.929 34.8316V34.0387ZM179.048 30.6046H177.753V29.4637H179.048V30.6046ZM179.025 37.5299H177.77V31.5116H179.025V37.5299ZM181.677 31.4146C181.757 31.6257 181.854 31.9965 181.871 32.2019C182.265 31.7683 183.035 31.3918 183.788 31.3918C185.345 31.3918 185.756 32.3673 185.756 33.4454V37.5299H184.512V33.7535C184.512 32.9891 184.256 32.4186 183.411 32.4186C182.83 32.4186 182.242 32.6982 181.917 33.0632V37.5299H180.673V32.8122C180.673 32.3844 180.633 31.928 180.531 31.5687L181.677 31.4146ZM189.732 38.9845C191.05 38.9845 191.352 38.106 191.352 37.3873V36.7312C191.061 37.1762 190.451 37.6725 189.498 37.6725C187.924 37.6725 187.137 36.5316 187.137 34.6377C187.137 32.8636 187.781 31.3405 189.675 31.3405C190.388 31.3405 191.095 31.6371 191.449 32.0764C191.449 31.9223 191.5 31.6542 191.535 31.5059H192.653C192.613 31.7455 192.567 32.3045 192.567 32.6468V37.5299C192.567 39.4295 191.095 39.9999 189.738 39.9999C188.973 39.9999 188.152 39.8345 187.45 39.5664L187.707 38.5225C188.249 38.7792 189.059 38.9845 189.732 38.9845ZM191.369 34.0387C191.369 33.7078 191.358 33.377 191.307 33.1089C191.067 32.778 190.571 32.3958 189.886 32.3958C188.768 32.3958 188.403 33.3371 188.403 34.6263C188.403 35.7558 188.768 36.64 189.749 36.64C190.599 36.64 191.118 36.0695 191.307 35.6531C191.346 35.4591 191.369 35.1283 191.369 34.8316V34.0387ZM197.422 32.6183C197.068 32.4529 196.543 32.316 196.093 32.316C195.71 32.316 195.203 32.4529 195.203 33.0119C195.203 33.4169 195.494 33.6052 196.247 33.9646C197.108 34.3696 197.832 34.8031 197.832 35.8413C197.832 37.2903 196.766 37.6953 195.83 37.6953C195.208 37.6953 194.284 37.5413 193.759 37.3302L194.039 36.2749C194.535 36.4917 195.243 36.6457 195.71 36.6457C196.19 36.6457 196.6 36.4916 196.6 35.887C196.6 35.4249 196.178 35.1625 195.368 34.786C194.53 34.4038 193.976 34.0273 193.976 33.0689C193.976 31.6485 195.191 31.3405 196.093 31.3405C196.629 31.3405 197.359 31.466 197.718 31.6086L197.422 32.6183Z" fill="black"/>
<path d="M15.7558 11.506C25.2596 7.24472 34.9002 6.01255 42.3046 7.53565C41.4775 7.15916 40.6389 6.51455 40.1312 5.59612C38.7678 3.13177 36.0924 1.66572 33.0291 2.00799C31.7684 2.1506 30.5248 1.83115 29.7034 1.2721C28.5511 0.490588 27.2504 0 25.6817 0C24.1072 0 22.8066 0.490588 21.66 1.2721C20.8386 1.83115 19.595 2.1506 18.3343 2.00799C15.271 1.66572 12.5955 3.13177 11.2322 5.59612C10.6218 6.69139 9.55505 7.39304 8.57387 7.72961C6.13234 8.55676 4.11865 10.7815 3.85054 13.6794C3.72504 15.0428 2.92071 16.1209 2.31603 16.7256C0.684541 18.3571 0 20.2681 0 22.2305C0 22.2647 0 22.2932 0 22.3274C4.00456 18.1631 9.39532 14.3582 15.7558 11.506Z" fill="black"/>
<path d="M24.1415 17.0908C32.2647 13.4456 40.4849 12.0195 47.3303 12.6298C46.7427 10.2568 44.9629 8.48267 42.7895 7.72397C42.6298 7.67263 42.4643 7.60988 42.3046 7.53572C34.9002 6.01262 25.2596 7.24479 15.7558 11.5061C9.39532 14.3583 4.00456 18.1632 0 22.3275C0.045636 26.178 2.92071 29.344 6.64005 29.8575C10.7587 24.9402 16.8055 20.3823 24.1415 17.0908Z" fill="black"/>
<path d="M49.0359 16.7199C48.4313 16.1152 47.6326 15.0428 47.5014 13.6737C47.4672 13.3143 47.4101 12.9663 47.3246 12.6298C40.4849 12.0194 32.259 13.4455 24.1358 17.0907C16.7941 20.3822 10.753 24.9344 6.63434 29.8574C6.97661 29.903 7.33029 29.9315 7.68967 29.9315H18.7393C19.7889 29.9315 20.6389 30.7986 20.6389 31.854V32.2989C20.6389 34.0673 18.8933 34.3012 18.8933 34.3012L9.90873 35.8471C9.58927 35.8984 9.31546 36.1152 9.31546 36.4347V37.5356H42.0251V36.4347C42.0251 36.1209 41.7513 35.8984 41.4318 35.8471L32.4472 34.3012C32.4472 34.3012 30.7016 34.0673 30.7016 32.2989V31.854C30.7016 30.8043 31.5516 29.9315 32.6012 29.9315H43.6509C47.9007 29.9315 51.3463 26.486 51.3463 22.2304C51.3577 20.2681 50.6731 18.3571 49.0359 16.7199Z" fill="black"/>
<path d="M15.7558 11.506C25.2538 7.24472 34.9002 6.01255 42.3046 7.53565C41.4775 7.15916 40.6389 6.51455 40.1312 5.59612C38.7678 3.13748 36.0924 1.67142 33.0291 2.00799C31.7684 2.1506 30.5248 1.83115 29.7034 1.2721C28.5511 0.490588 27.2504 0 25.6817 0C24.1072 0 22.8066 0.490588 21.66 1.2721C20.8386 1.83115 19.595 2.1506 18.3343 2.00799C15.271 1.66572 12.5955 3.13177 11.2322 5.59612C10.6218 6.69139 9.55505 7.39304 8.57387 7.72961C6.12664 8.55676 4.11865 10.7815 3.85054 13.6794C3.72504 15.0428 2.92071 16.1209 2.32173 16.7199C0.684541 18.3571 0 20.2738 0 22.2305C0 22.2647 0 22.2932 0 22.3274C4.00456 18.1631 9.39532 14.3639 15.7558 11.506Z" fill="url(#paint0_linear_2058_3315)"/>
<path d="M24.1415 17.0965C32.2647 13.4513 40.4849 12.0252 47.3303 12.6355C46.7427 10.2625 44.9629 8.48837 42.7895 7.72967C42.6298 7.67833 42.4701 7.60988 42.3046 7.53572C34.9002 6.01262 25.2538 7.24479 15.7558 11.5061C9.39532 14.364 4.00456 18.1632 0 22.3275C0.045636 26.178 2.92071 29.344 6.64005 29.8575C10.7587 24.9402 16.8055 20.3823 24.1415 17.0965Z" fill="url(#paint1_linear_2058_3315)"/>
<path d="M49.0361 16.7198C48.4371 16.1208 47.6328 15.0427 47.5073 13.6793C47.4731 13.3199 47.416 12.9719 47.3304 12.6354C40.4907 12.025 32.2648 13.4511 24.1416 17.0963C16.8056 20.3878 10.7589 24.94 6.6402 29.8573C6.98247 29.9029 7.33615 29.9314 7.69553 29.9314H18.7452C19.7948 29.9314 20.6448 30.8042 20.6448 31.8539V32.2988C20.6448 34.0672 18.8992 34.3011 18.8992 34.3011L9.91458 35.847C9.59513 35.8984 9.32132 36.1151 9.32132 36.4346V37.5355H42.031V36.4346C42.031 36.1208 41.7571 35.8984 41.4377 35.847L32.4531 34.3011C32.4531 34.3011 30.7075 34.0615 30.7075 32.2988V31.8539C30.7075 30.8042 31.5575 29.9314 32.6071 29.9314H43.6624C47.9123 29.9314 51.3578 26.4859 51.3578 22.2361C51.3578 20.2737 50.6733 18.357 49.0361 16.7198Z" fill="#009143"/>
</g>
<defs>
<linearGradient id="paint0_linear_2058_3315" x1="32.1605" y1="-1.52727" x2="7.7563" y2="28.6094" gradientUnits="userSpaceOnUse">
<stop stop-color="#6FBA2C"/>
<stop offset="0.3125" stop-color="#30A938"/>
<stop offset="0.7712" stop-color="#009641"/>
<stop offset="1" stop-color="#009143"/>
</linearGradient>
<linearGradient id="paint1_linear_2058_3315" x1="39.8096" y1="-2.45493" x2="10.7091" y2="33.4812" gradientUnits="userSpaceOnUse">
<stop stop-color="#45B035"/>
<stop offset="0.27" stop-color="#00A23D"/>
<stop offset="0.5437" stop-color="#009841"/>
<stop offset="0.7948" stop-color="#009243"/>
<stop offset="1" stop-color="#009143"/>
</linearGradient>
<clipPath id="clip0_2058_3315">
<rect width="197.838" height="40" fill="white"/>
</clipPath>
</defs>
</svg>
