<?xml version="1.0" encoding="UTF-8" standalone="no"?>
<svg
   width="198"
   height="40"
   viewBox="0 0 198 40"
   fill="none"
   version="1.1"
   id="svg21"
   sodipodi:docname="Cathay-logo-1.svg"
   inkscape:version="1.3.2 (091e20e, 2023-11-25)"
   xmlns:inkscape="http://www.inkscape.org/namespaces/inkscape"
   xmlns:sodipodi="http://sodipodi.sourceforge.net/DTD/sodipodi-0.dtd"
   xmlns="http://www.w3.org/2000/svg"
   xmlns:svg="http://www.w3.org/2000/svg">
  <sodipodi:namedview
     id="namedview21"
     pagecolor="#ffffff"
     bordercolor="#000000"
     borderopacity="0.25"
     inkscape:showpageshadow="2"
     inkscape:pageopacity="0.0"
     inkscape:pagecheckerboard="0"
     inkscape:deskcolor="#d1d1d1"
     inkscape:zoom="2.4646465"
     inkscape:cx="83.581966"
     inkscape:cy="14.606557"
     inkscape:window-width="1360"
     inkscape:window-height="451"
     inkscape:window-x="199"
     inkscape:window-y="269"
     inkscape:window-maximized="0"
     inkscape:current-layer="g13" />
  <g
     clip-path="url(#clip0_2058_3315)"
     id="g13">
    <g
       id="g1"
       transform="matrix(1.3444356,0,0,1.5301943,-66.274849,2.4380549)">
      <path
         d="m 123.993,18.6651 -0.986,-3.7935 c 0,-0.0856 0.079,-0.154 0.171,-0.154 h 1.683 c 0.165,0 0.302,0.1198 0.302,0.2738 l 0.576,3.7878 c 0,0.0228 -0.023,0.0456 -0.051,0.0456 h -1.523 c -0.097,-0.0057 -0.172,-0.0741 -0.172,-0.1597 z m 9.875,-3.9418 c -0.097,0 -0.171,0.0684 -0.171,0.154 l -0.993,3.7935 c 0,0.0856 0.08,0.154 0.177,0.154 h 1.683 c 0.165,0 0.302,-0.1198 0.302,-0.2681 l 0.571,-3.7878 c 0,-0.0228 -0.023,-0.0456 -0.046,-0.0456 z m 5.984,-5.20254 -0.285,0.87274 c 0,0 -0.149,0.4507 -0.588,0.2453 -1.58,-0.5989 -2.943,-1.26636 -4.13,-1.96231 V 9.5721 c 0,0.11979 -0.097,0.21677 -0.217,0.21677 h -4.033 v 2.23043 h 5.899 c 0.119,0 0.216,0.097 0.216,0.2168 v 1.1637 c 0,0.1198 -0.097,0.2168 -0.216,0.2168 h -5.899 v 5.9897 h 8.146 c 0.12,0 0.217,0.097 0.217,0.2168 v 1.1637 c 0,0.1198 -0.097,0.2168 -0.217,0.2168 h -19.041 c -0.12,0 -0.217,-0.097 -0.217,-0.2168 v -1.1637 c 0,-0.1198 0.097,-0.2168 0.217,-0.2168 h 8.146 v -5.9897 h -5.899 c -0.12,0 -0.217,-0.097 -0.217,-0.2168 v -1.1637 c 0,-0.1198 0.097,-0.2168 0.217,-0.2168 h 5.899 V 9.78887 h -4.033 c -0.12,0 -0.217,-0.09698 -0.217,-0.21677 V 8.67649 c -1.187,0.69595 -2.556,1.36911 -4.13,1.96231 -0.44,0.2054 -0.588,-0.2453 -0.588,-0.2453 l -0.285,-0.87274 c 0,0 -0.051,-0.37079 0.354,-0.48488 4.694,-1.96806 7.125,-5.08272 8.568,-6.94239 0.205,-0.27382 0.576,-0.33086 0.753,-0.34227 -0.006,0 0,0 -0.006,0 h 0.069 c 0.017,0 0.028,0 0.028,0 h 1.734 c 0,0 0.012,0 0.029,0 h 0.068 c -0.005,0 -0.005,0 -0.005,0 0.176,0.01141 0.547,0.06845 0.752,0.34227 1.438,1.85967 3.874,4.98004 8.569,6.94239 0.393,0.11409 0.342,0.48488 0.342,0.48488 z m -5.79,-1.32345 c -2.288,-1.46605 -3.822,-3.01768 -4.838,-4.24985 -1.015,1.23217 -2.549,2.7838 -4.843,4.24985 z"
         fill="#000000"
         id="path1" />
      <path
         d="m 157.251,6.68001 c 0.262,0 0.233,0.22248 0.233,0.22248 0,3.08613 -1.54,4.66061 -4.643,5.68171 -0.257,0.1027 -0.228,-0.1483 -0.228,-0.1483 v -1.0725 c 0,0 0,-0.1255 0.165,-0.1939 1.809,-0.7759 2.407,-2.00803 2.573,-4.27272 0,-0.23388 0.285,-0.21677 0.285,-0.21677 0,0 1.495,0 1.615,0 z m -5.066,1.32345 h 1.266 c 0.143,0 0.268,-0.1198 0.268,-0.27382 V 5.522 5.41931 h 9.327 v 1.72847 0.58186 c 0,0.14832 0.12,0.27382 0.268,0.27382 h 1.267 c 0.142,0 0.268,-0.1198 0.268,-0.27382 V 5.03711 c 0,-0.66742 -0.513,-1.20935 -1.152,-1.20935 h -4.142 v -1.6372 c 0,-0.14831 -0.12,-0.27381 -0.268,-0.27381 h -1.814 c -0.148,0 -0.268,0.11979 -0.268,0.27381 v 1.63149 h -5.026 c -0.148,0 -0.268,0.1198 -0.268,0.26811 V 4.42673 4.7633 7.72964 c 0.006,0.14832 0.126,0.27382 0.274,0.27382 z m 12.926,11.55734 h -5.567 v -4.3925 h 4.352 c 0.12,0 0.217,-0.097 0.217,-0.2168 v -1.1637 c 0,-0.1198 -0.097,-0.2167 -0.217,-0.2167 h -11.055 c -0.12,0 -0.217,0.0969 -0.217,0.2167 v 1.1637 c 0,0.1198 0.097,0.2168 0.217,0.2168 h 4.352 v 4.3925 h -5.567 c -0.12,0 -0.217,0.097 -0.217,0.2168 v 1.1637 c 0,0.1198 0.097,0.2167 0.217,0.2167 h 13.48 c 0.119,0 0.216,-0.0969 0.216,-0.2167 v -1.1637 c 0.006,-0.1141 -0.085,-0.2168 -0.211,-0.2168 z m -13.993,-7.6783 c -0.006,-0.0741 -0.08,-0.0741 -0.108,-0.0627 -0.616,0.3251 -1.25,0.6046 -1.888,0.8556 V 8.00346 h 1.768 c 0.148,0 0.268,-0.1198 0.268,-0.26812 V 6.68001 c 0,-0.14832 -0.12,-0.26811 -0.268,-0.26811 h -1.768 V 2.4872 c 0,-0.14832 -0.12,-0.26811 -0.269,-0.26811 h -1.802 c -0.148,0 -0.263,0.11979 -0.263,0.26811 v 3.9247 h -2.361 c -0.149,0 -0.268,0.11979 -0.268,0.26811 v 1.05533 c 0,0.14832 0.119,0.26812 0.268,0.26812 h 2.361 l -0.005,5.47634 c -0.839,0.2567 -1.689,0.4906 -2.544,0.7302 -0.092,0.0171 -0.109,0.1026 -0.08,0.1711 0.188,0.405 0.559,1.2322 0.69,1.5288 0.051,0.1027 0.103,0.1711 0.268,0.1084 0.519,-0.1769 1.084,-0.3993 1.66,-0.6503 v 3.725 c -0.011,0.5819 -0.125,0.9013 -1.084,0.9013 h -0.975 c -0.069,0 -0.08,0.0457 -0.08,0.0628 v 1.1466 c 0,0.1198 0.097,0.2168 0.217,0.2168 h 1.546 c 2.413,0 2.715,-0.3138 2.715,-2.299 v -4.8602 c 0.77,-0.3879 1.506,-0.7872 2.139,-1.158 0.069,-0.0457 0.091,-0.0571 0.069,-0.1883 z m 8.739,-0.3594 c 0.44,0.4678 1.352,0.4564 1.951,0.4564 h 2.077 c 0.12,0 0.217,-0.097 0.217,-0.2168 v -1.2949 c 0,0 0.011,-0.0799 -0.08,-0.0799 h -1.968 c -0.537,-0.0513 -0.531,-0.0171 -0.565,-0.77007 V 6.87967 c 0,0 0.017,-0.21107 -0.188,-0.21107 h -1.609 c -0.285,0 -0.274,0.21107 -0.274,0.21107 v 2.7838 c -0.005,0.61033 -0.011,1.38053 0.439,1.85963 z"
         fill="#000000"
         id="path2" />
      <path
         d="M 86.4748,2.09912 H 67.5415 c -0.6446,0 -1.1694,0.51911 -1.1694,1.16372 V 20.2509 c 0,0.6446 0.5191,1.1694 1.1637,1.1694 h 18.9333 c 0.6446,0 1.1637,-0.5248 1.1637,-1.1637 L 87.6385,3.26854 c 0,-0.6389 -0.5191,-1.16942 -1.1637,-1.16942 z m -6.275,1.42042 h 1.6315 c 0.0856,0.43355 0.2054,1.10668 0.3251,1.93383 H 80.2397 C 80.1884,4.56347 80.1884,3.89034 80.1998,3.51954 Z m -11.1751,0 h 9.1044 c 0.0114,0.36509 0.0399,1.04393 0.1312,1.93383 H 69.0247 Z M 84.9916,19.9999 H 69.019 L 69.0247,6.8852 h 9.401 c 0.2909,2.13349 0.8614,4.8888 1.9852,7.4558 -0.9698,1.3976 -2.1221,2.6697 -3.457,3.5824 -0.1141,0.0742 -0.0342,0.1997 -0.0342,0.1997 l 0.4278,0.8214 c 0,0 0.0628,0.1655 0.1997,0.0628 1.4033,-0.793 2.6013,-1.8825 3.6281,-3.1147 0.6902,1.2436 1.5402,2.3902 2.5784,3.3429 0.1084,0.1198 0.2111,0.0285 0.2111,0.0285 l 0.6446,-0.7644 c 0,0 0.0856,-0.0685 -0.0114,-0.1597 -0.9926,-1.1752 -1.7627,-2.4986 -2.356,-3.8563 0.7359,-1.0667 1.3634,-2.1905 1.8996,-3.2972 0.0913,-0.1825 -0.0684,-0.2396 -0.0684,-0.2396 l -1.3634,-0.5476 c 0,0 -0.154,-0.0628 -0.2111,0.0912 -0.2852,0.6846 -0.6218,1.3805 -0.9926,2.0651 C 80.8444,10.519 80.5078,8.51099 80.3424,6.8852 h 3.4398 c 0,0 0.4906,0 0.4678,-0.60468 C 84.0503,5.20237 83.8564,4.12993 83.7423,3.51954 h 1.2493 z m -7.3988,-3.8677 c -2.1677,0.9641 -5.6931,1.7114 -7.336,1.7798 0,0 0,0 -0.0057,0 h -0.0114 c -0.1198,0 -0.2224,-0.097 -0.2224,-0.2168 V 16.098 c 0,-0.1198 0.0969,-0.2168 0.2224,-0.2168 h 0.0114 c 1.4547,-0.0342 4.6492,-0.3023 7.3189,-1.0724 0,0 0.154,-0.0457 0.154,0.1255 v 0.9982 c 0.0057,0.1484 -0.1312,0.1997 -0.1312,0.1997 z m -6.4061,-2.3445 h 5.385 c 0.6389,0 1.1638,-0.5249 1.1638,-1.1638 V 9.29821 c 0,-0.64461 -0.5192,-1.16372 -1.1638,-1.16372 h -5.385 c -0.6389,0 -1.1637,0.51911 -1.1637,1.16372 v 3.32569 c 0,0.6446 0.5191,1.1638 1.1637,1.1638 z m 1.409,-4.43245 h 2.567 v 3.21735 h -2.567 z"
         fill="#000000"
         id="path3" />
      <path
         d="m 104.832,13.6736 v 5.4478 c 0,1.9852 -0.725,2.299 -3.012,2.299 h -1.004 c -0.183,0 -0.331,-0.1426 -0.331,-0.3309 v -1.0154 c 0,0 -0.011,-0.0799 0.08,-0.0799 h 0.553 c 0.959,0 1.055,-0.3194 1.067,-0.907 v -6.3149 c 0,-0.1483 0.12,-0.2681 0.268,-0.2681 h 1.221 c 0.639,0.0057 1.158,0.5305 1.158,1.1694 z m 9.167,0.4222 c -1.324,-0.6218 -2.83,-1.5688 -3.942,-2.664 h 3.942 c 0.12,0 0.217,-0.097 0.217,-0.2168 v -1.1637 c 0,-0.11981 -0.097,-0.21679 -0.217,-0.21679 h -13.474 c 0.473,-0.61038 0.913,-1.23217 1.312,-1.83685 h 9.618 c 0.12,0 0.216,-0.09697 0.216,-0.21677 V 6.61717 c 0,-0.11979 -0.096,-0.21677 -0.216,-0.21677 h -8.648 c 0.37,-0.66172 0.696,-1.28351 0.964,-1.84256 h 9.458 c 0.12,0 0.217,-0.09697 0.217,-0.21677 V 3.17735 c 0,-0.11979 -0.097,-0.21677 -0.217,-0.21677 h -8.751 c 0.091,-0.23388 0.166,-0.42783 0.217,-0.58186 0.074,-0.21677 0.063,-0.37649 -0.177,-0.43354 -0.513,-0.10838 -1.563,-0.32516 -1.871,-0.40502 -0.411,-0.10268 -0.479,0.30804 -0.479,0.30804 l -0.171,0.54764 c -0.057,0.17113 -0.12,0.35938 -0.194,0.55904 h -7.8098 c -0.1198,0 -0.2167,0.09698 -0.2167,0.21677 v 1.16372 c 0,0.11979 0.0969,0.21677 0.2167,0.21677 h 7.1538 C 100.89,5.134 100.588,5.75009 100.245,6.3947 h -4.5119 c -0.1198,0 -0.2168,0.09697 -0.2168,0.21677 v 1.16372 c 0,0.11979 0.097,0.21677 0.2168,0.21677 h 3.5881 c -0.3879,0.61608 -0.81,1.23788 -1.2721,1.83685 H 93.149 c -0.1198,0 -0.2168,0.09698 -0.2168,0.21679 v 1.1637 c 0,0.1198 0.097,0.2168 0.2168,0.2168 h 3.5368 c -1.0497,1.0895 -2.2305,2.0365 -3.554,2.6583 -0.3422,0.1198 -0.1768,0.4221 -0.1768,0.4221 l 0.2567,0.6218 c 0,0 0.0856,0.2567 0.3936,0.1369 0.8329,-0.2966 1.6144,-0.6959 2.356,-1.1637 1.7227,0.4335 3.7821,1.3577 4.2957,1.5744 0.16,0.0856 0.228,-0.0456 0.228,-0.0456 l 0.622,-1.312 c 0,0 0.108,-0.1655 -0.069,-0.2453 -0.718,-0.3138 -2.3328,-0.7759 -3.5878,-1.0554 0.6046,-0.4906 1.1694,-1.0325 1.6999,-1.5972 h 8.4429 c 0.507,0.5248 1.084,1.0325 1.7,1.506 -1.004,0.4734 -2.63,0.8328 -3.537,0.9355 -0.12,0.0114 -0.166,0.0913 -0.131,0.2225 0.177,0.5248 0.228,0.9298 0.399,1.4489 0.057,0.1711 0.137,0.1711 0.257,0.1426 0.599,-0.0912 3.206,-1.061 4.341,-1.8311 0.93,0.5761 1.917,1.0667 2.898,1.4261 0.302,0.1141 0.393,-0.1426 0.393,-0.1426 l 0.257,-0.6218 c 0.006,0.0114 0.171,-0.2909 -0.171,-0.4107 z m -12.658,3.5824 c -0.063,-0.4678 -0.08,-0.405 -0.171,-0.8785 -0.006,-0.0741 -0.092,-0.1654 -0.212,-0.1141 -2.1502,1.1181 -4.2894,1.6714 -6.6225,2.3161 -0.1369,0.0513 -0.1825,0.1483 -0.1255,0.2681 0.1882,0.405 0.5134,1.118 0.6503,1.4147 0.0514,0.1027 0.194,0.1825 0.3594,0.1255 1.8996,-0.6446 4.2841,-1.8483 6.0243,-2.8523 0.114,-0.0741 0.119,-0.154 0.097,-0.2795 z m 11.146,1.4204 c -1.939,-0.9127 -4.204,-1.6999 -6.223,-2.162 -0.194,-0.0627 -0.223,0.0799 -0.223,0.0799 l -0.393,0.8557 c 0,0 -0.092,0.1768 0.085,0.2396 1.945,0.8442 3.651,1.5288 5.476,2.6183 0.189,0.0799 0.411,0.0742 0.542,-0.097 0.337,-0.4962 0.48,-0.7301 0.822,-1.2321 0.063,-0.1141 0.028,-0.2396 -0.086,-0.3024 z"
         fill="#000000"
         id="path4" />
    </g>
  </g>
  <defs
     id="defs21">
    <linearGradient
       id="paint0_linear_2058_3315"
       x1="32.1605"
       y1="-1.52727"
       x2="7.7563"
       y2="28.6094"
       gradientUnits="userSpaceOnUse">
      <stop
         stop-color="#6FBA2C"
         id="stop13" />
      <stop
         offset="0.3125"
         stop-color="#30A938"
         id="stop14" />
      <stop
         offset="0.7712"
         stop-color="#009641"
         id="stop15" />
      <stop
         offset="1"
         stop-color="#009143"
         id="stop16" />
    </linearGradient>
    <linearGradient
       id="paint1_linear_2058_3315"
       x1="39.8096"
       y1="-2.45493"
       x2="10.7091"
       y2="33.4812"
       gradientUnits="userSpaceOnUse">
      <stop
         stop-color="#45B035"
         id="stop17" />
      <stop
         offset="0.27"
         stop-color="#00A23D"
         id="stop18" />
      <stop
         offset="0.5437"
         stop-color="#009841"
         id="stop19" />
      <stop
         offset="0.7948"
         stop-color="#009243"
         id="stop20" />
      <stop
         offset="1"
         stop-color="#009143"
         id="stop21" />
    </linearGradient>
    <clipPath
       id="clip0_2058_3315">
      <rect
         width="197.838"
         height="40"
         fill="white"
         id="rect21" />
    </clipPath>
  </defs>
</svg>
