<svg width="2317" height="400" viewBox="0 0 2317 400" fill="none" xmlns="http://www.w3.org/2000/svg">
<path d="M519.964 30.6918C537.046 262.093 388.318 371.465 254.988 383.128C131.03 393.97 14.3502 317.794 4.11402 200.754C-4.32979 104.06 55.4247 62.8944 102.373 58.7908C150.661 54.5576 191.238 87.8617 194.758 128.185C198.149 166.954 173.962 184.599 157.139 186.068C143.836 187.234 127.1 179.156 125.588 161.813C124.293 146.911 129.951 144.88 128.568 129.049C126.107 100.864 101.531 97.5808 88.077 98.7471C71.7941 100.173 42.2515 119.179 46.3979 166.522C50.5658 214.275 96.3481 252.006 156.362 246.758C221.126 241.099 266.218 190.668 269.608 119.935C269.577 116.188 270.366 112.48 271.919 109.071L271.94 108.985C272.638 107.503 273.454 106.08 274.381 104.73C275.763 102.656 277.534 100.367 279.823 97.8615C279.844 97.7968 279.844 97.7968 279.888 97.7968C281.55 95.9177 283.559 93.8875 285.826 91.7061C314.116 65.011 416.003 2.05292 512.362 21.9878C514.398 22.4244 516.239 23.5079 517.609 25.0766C518.979 26.6453 519.805 28.6151 519.964 30.6918Z" fill="url(#paint0_linear_11_1213)"/>
<path d="M759.06 129.885V358.412C759.06 358.726 758.933 359.029 758.711 359.251C758.489 359.474 758.188 359.599 757.871 359.599H709.194C708.881 359.599 708.575 359.474 708.354 359.251C708.132 359.029 708.005 358.726 708.005 358.412V129.885C708.005 129.602 708.12 129.33 708.318 129.13C708.52 128.929 708.793 128.816 709.075 128.816H757.99C758.275 128.816 758.544 128.929 758.747 129.13C758.945 129.33 759.06 129.602 759.06 129.885Z" fill="#111D4A"/>
<path d="M1140.79 47.3359C1140.54 47.3359 1140.3 47.4362 1140.12 47.6142C1139.94 47.7925 1139.84 48.0343 1139.84 48.2864V89.2642C1139.84 89.5476 1139.95 89.8195 1140.15 90.02C1140.35 90.2206 1140.63 90.3331 1140.91 90.3331H1238.5V358.412C1238.5 358.727 1238.63 359.029 1238.85 359.251C1239.07 359.474 1239.37 359.599 1239.69 359.599H1290.38C1290.7 359.599 1291 359.474 1291.22 359.251C1291.44 359.029 1291.57 358.727 1291.57 358.412V90.3331H1381.33C1381.67 90.3331 1382.01 90.1956 1382.25 89.9503C1382.5 89.7053 1382.64 89.3732 1382.64 89.0264V48.2864C1382.64 48.0343 1382.53 47.7925 1382.35 47.6142C1382.18 47.4362 1381.93 47.3359 1381.68 47.3359H1140.79Z" fill="#111D4A"/>
<path d="M1158.55 358.293C1158.55 358.64 1158.42 358.972 1158.17 359.217C1157.93 359.462 1157.59 359.6 1157.25 359.6H1109.76C1109.41 359.6 1109.08 359.462 1108.83 359.217C1108.59 358.972 1108.45 358.64 1108.45 358.293V225.145C1108.41 218.663 1107.89 212.192 1106.91 205.785C1103.58 182.861 1095.03 167.42 1064.41 167.42H1063.1C1053.8 167.76 1044.72 170.327 1036.62 174.903C1026.07 180.459 1017.11 188.64 1010.62 198.658C1011.58 206.063 1012.05 213.522 1012.05 220.988V361.263C1012.05 361.578 1011.92 361.88 1011.7 362.103C1011.48 362.325 1011.18 362.451 1010.86 362.451H964.084C963.736 362.451 963.403 362.313 963.161 362.068C962.916 361.823 962.777 361.491 962.777 361.144V238.804C962.777 217.068 964.084 193.788 953.281 180.842C948.8 175.993 943.238 172.273 937.05 169.981C930.857 167.691 924.218 166.894 917.661 167.657C908.553 168.061 899.623 170.325 891.423 174.309C885.864 176.633 880.793 179.977 876.463 184.167C871.349 189.018 867.585 195.117 865.541 201.865V358.293C865.541 358.64 865.402 358.972 865.16 359.217C864.915 359.462 864.582 359.6 864.233 359.6H816.744C816.4 359.6 816.067 359.462 815.821 359.217C815.576 358.972 815.441 358.64 815.441 358.293V131.43C815.441 131.115 815.564 130.813 815.786 130.59C816.008 130.368 816.313 130.243 816.626 130.243H836.929C840.887 130.229 844.746 131.477 847.947 133.805C851.148 136.133 853.529 139.419 854.737 143.189C855.688 146.515 856.873 149.366 857.348 150.791C877.438 133.326 903.28 123.932 929.891 124.423C940.152 123.708 950.448 125.193 960.091 128.777C969.734 132.361 978.505 137.963 985.81 145.208C989.229 149.29 992.288 153.662 994.95 158.274C1005.1 147.494 1017.41 138.989 1031.08 133.318C1044.75 127.647 1059.47 124.939 1074.26 125.373C1099.43 125.373 1157.96 133.925 1157.96 213.386L1158.55 358.293Z" fill="#111D4A"/>
<path d="M1854.75 360.193H1802.63C1802.38 360.207 1802.13 360.16 1801.91 360.057C1801.68 359.953 1801.48 359.796 1801.33 359.599C1790.41 344.396 1767.13 308.05 1764.64 305.318L1763.57 303.536C1755.38 292.728 1736.03 267.904 1710.14 262.321L1690.55 282.632V358.649C1690.55 358.773 1690.53 358.897 1690.48 359.012C1690.44 359.128 1690.36 359.232 1690.28 359.321C1690.19 359.409 1690.08 359.479 1689.97 359.526C1689.85 359.574 1689.73 359.599 1689.61 359.599H1641.17C1640.84 359.569 1640.54 359.419 1640.32 359.176C1640.1 358.935 1639.98 358.619 1639.98 358.292V43.2972C1639.98 42.9821 1640.1 42.6801 1640.33 42.4574C1640.55 42.2346 1640.85 42.1094 1641.17 42.1094H1690.55C1690.81 42.1094 1691.05 42.2096 1691.23 42.3876C1691.41 42.566 1691.51 42.8077 1691.51 43.0598V221.224L1786.49 123.828H1787.31H1841.57C1843.12 123.828 1843.83 123.828 1844.42 124.897C1845.02 125.966 1844.42 126.916 1844.42 127.985L1744.46 229.538C1766.66 241.369 1785.75 258.303 1800.14 278.95L1801.21 280.375C1804.53 284.651 1841.81 337.863 1855.94 357.699C1856.27 357.856 1856.53 358.138 1856.65 358.484C1856.77 358.829 1856.75 359.209 1856.59 359.54C1856.43 359.87 1856.15 360.125 1855.81 360.247C1855.46 360.37 1855.08 360.35 1854.75 360.193Z" fill="#111D4A"/>
<path d="M764.044 67.4102C764.162 73.4897 762.471 79.4669 759.183 84.5813C755.894 89.6957 751.16 93.7155 745.582 96.1296C740 98.5437 733.832 99.2428 727.853 98.1378C721.879 97.0328 716.365 94.174 712.015 89.9248C707.669 85.6756 704.681 80.2287 703.437 74.2764C702.193 68.3246 702.748 62.1365 705.03 56.5005C707.312 50.8641 711.218 46.0347 716.25 42.6261C721.285 39.2176 727.216 37.3845 733.297 37.3595C737.286 37.3124 741.248 38.0523 744.956 39.5374C748.66 41.0221 752.036 43.2226 754.892 46.0129C757.748 48.8035 760.026 52.1292 761.595 55.8006C763.168 59.4719 764 63.4171 764.044 67.4102Z" fill="#111D4A"/>
<path d="M1483.55 119.078C1413.62 119.078 1370.29 165.52 1370.29 240.349C1370.29 315.178 1413.62 361.619 1483.55 361.619C1553.48 361.619 1597.53 315.059 1597.53 240.23C1597.53 165.401 1553.48 119.078 1483.55 119.078ZM1528.79 303.063C1522.71 308.658 1515.58 312.98 1507.81 315.775C1500.05 318.569 1491.8 319.78 1483.55 319.335C1430.01 319.335 1418.97 274.913 1418.97 237.854C1418.97 186.187 1439.98 161.006 1483.55 161.006C1527.12 161.006 1547.9 187.493 1547.9 239.993C1548.14 268.618 1541.61 289.879 1528.79 302.944V303.063Z" fill="#111D4A"/>
<path d="M2073.88 287.979C2072.81 286.672 2070.55 287.979 2069.49 287.979L2027.57 294.274C2026.86 294.288 2026.17 294.508 2025.58 294.909C2024.99 295.309 2024.52 295.872 2024.25 296.531C2019.69 304.065 2013.36 310.373 2005.8 314.906C1998.25 319.438 1989.71 322.06 1980.91 322.543C1969.5 324.156 1957.85 322.58 1947.28 317.99C1936.69 313.4 1927.59 305.973 1920.96 296.531C1913.58 287.001 1908.97 275.614 1907.66 263.63V262.798L2028.64 246.17C2036.11 245.3 2043.27 242.701 2049.56 238.577C2055.84 234.453 2061.08 228.919 2064.85 222.414C2068.36 215.702 2070.24 208.261 2070.34 200.689C2070.44 193.118 2068.77 185.628 2065.45 178.823C2054.19 154.395 2033.95 135.251 2008.94 125.374C1991.31 118.656 1972.29 116.494 1953.61 119.09C1934.93 121.685 1917.21 128.953 1902.08 140.221C1888.24 151.269 1877.09 165.315 1869.46 181.301C1861.83 197.287 1857.92 214.796 1858.03 232.51C1857.45 244.027 1858.09 255.573 1859.94 266.955C1868.37 315.654 1903.86 364.827 1965.95 364.827C2040.04 364.827 2068.42 319.217 2073.64 291.898C2074.35 291.067 2075.18 288.929 2073.88 287.979ZM1919.54 184.287C1925.15 177.304 1932.13 171.542 1940.06 167.355C1947.98 163.168 1956.67 160.644 1965.6 159.938C1973.82 158.325 1982.3 158.714 1990.34 161.07C1998.38 163.427 2005.73 167.682 2011.78 173.478C2016.54 177.956 2020.55 183.17 2023.66 188.919C2024.55 190.771 2025.02 192.801 2025.02 194.858C2025.02 196.915 2024.55 198.945 2023.66 200.797C2022.85 202.698 2021.56 204.356 2019.91 205.606C2018.27 206.856 2016.32 207.654 2014.28 207.923L1903.74 223.364C1905.45 209.083 1911.08 195.555 1920.01 184.287H1919.54Z" fill="#111D4A"/>
<path d="M2313.31 216.831V358.294C2313.31 358.641 2313.18 358.973 2312.93 359.218C2312.69 359.463 2312.35 359.601 2312.01 359.601H2264.51C2264.2 359.601 2263.9 359.475 2263.67 359.253C2263.45 359.03 2263.33 358.728 2263.33 358.413V240.705C2263.33 240.705 2263.33 221.226 2262.38 203.528C2262.21 197.599 2260.86 191.763 2258.41 186.36C2255.97 180.957 2252.47 176.093 2248.13 172.053C2243.64 168.502 2238.46 165.937 2232.92 164.525C2227.37 163.113 2221.59 162.886 2215.96 163.857C2193.51 166.752 2173 178.092 2158.61 195.57V358.294C2158.61 358.641 2158.48 358.973 2158.23 359.218C2157.98 359.463 2157.66 359.601 2157.31 359.601H2109.82C2109.47 359.601 2109.14 359.463 2108.9 359.218C2108.65 358.973 2108.51 358.641 2108.51 358.294V127.155C2108.51 126.809 2108.65 126.476 2108.9 126.231C2109.14 125.986 2109.47 125.849 2109.82 125.849H2149.59C2149.94 125.849 2150.27 125.986 2150.51 126.231C2150.76 126.476 2150.9 126.809 2150.9 127.155V149.723C2170.97 131.523 2196.84 121.006 2223.91 120.028C2246.71 118.603 2313.31 119.909 2313.31 216.831Z" fill="#111D4A"/>
<defs>
<linearGradient id="paint0_linear_11_1213" x1="467.883" y1="105.475" x2="80.0105" y2="325.438" gradientUnits="userSpaceOnUse">
<stop stop-color="#0CC5FF"/>
<stop offset="1" stop-color="#007FFF"/>
</linearGradient>
</defs>
</svg>
