<svg width="192" height="72" viewBox="0 0 192 72" fill="none" xmlns="http://www.w3.org/2000/svg">
<g clip-path="url(#clip0_4861_1125)">
<path d="M36.2457 27.63H36.2357C31.6131 27.63 27.8657 31.3774 27.8657 36V36.01C27.8657 40.6326 31.6131 44.38 36.2357 44.38H36.2457C40.8683 44.38 44.6157 40.6326 44.6157 36.01V36C44.6157 31.3774 40.8683 27.63 36.2457 27.63Z" fill="#00FFB6"/>
<path d="M19.8158 28.25C19.8158 23.28 23.8458 19.25 28.8158 19.25H46.1958L65.4458 0H17.4558L0.23584 17.22V45.55H19.8158V28.24V28.25Z" fill="black"/>
<path d="M52.6559 26.38V43.09C52.6559 48.06 48.6259 52.09 43.6559 52.09H26.9459L7.02588 72.01H55.0159L72.2359 54.79V26.39H52.6559V26.38Z" fill="black"/>
</g>
<path d="M114.102 26.082C113.29 19.354 109.636 15.468 104.126 15.468C100.066 15.468 97.6878 17.962 97.6878 21.964C97.6878 33.1 118.51 33.68 118.51 50.442C118.51 59.026 113 64.594 104.184 64.594C96.7018 64.594 92.2358 61.926 92.2358 59.432C92.2358 58.504 92.4678 56.416 92.4678 54.328C92.4678 51.95 92.2358 49.63 92.2358 49.166C92.2358 48.18 92.9318 47.89 93.4538 47.89C93.9758 47.89 94.4398 48.122 94.6718 49.05C96.9918 58.214 100.298 61.984 106.04 61.984C110.39 61.984 112.942 59.142 112.942 54.27C112.942 39.886 92.2358 40.524 92.2358 25.792C92.2358 17.962 97.2818 12.858 105.576 12.858C109.926 12.858 116.48 14.366 116.48 17.092C116.48 17.904 116.364 19.992 116.364 22.08L116.48 26.604C116.48 27.532 115.958 27.822 115.436 27.822C114.856 27.822 114.276 27.59 114.102 26.082Z" fill="black"/>
<path d="M137.073 39.48C140.785 39.48 142.989 37.624 142.989 34.434C142.989 30.664 140.727 28.228 137.479 28.228C133.245 28.228 130.577 31.882 129.707 38.9C129.649 39.306 129.823 39.48 130.171 39.48H137.073ZM121.819 45.57C121.819 33.332 127.793 25.328 136.957 25.328C144.033 25.328 148.673 30.548 148.673 39.422C148.673 41.626 148.093 42.38 146.759 42.38H129.939C129.591 42.38 129.417 42.554 129.417 42.786L129.359 45.048C129.359 54.618 133.071 60.824 139.393 60.824C142.409 60.824 144.439 59.722 146.759 57.634C147.223 57.228 147.745 57.17 148.151 57.46C148.557 57.75 148.615 58.272 148.383 58.736C146.643 62.274 142.351 64.536 137.479 64.536C127.967 64.536 121.819 57.054 121.819 45.57Z" fill="black"/>
<path d="M161.209 57.808C161.209 60.824 163.007 61.462 164.283 61.752C165.037 61.926 165.211 62.274 165.211 62.738C165.211 63.144 164.979 63.666 164.225 63.666C163.587 63.666 160.745 63.318 157.671 63.318C154.713 63.318 151.871 63.666 151.233 63.666C150.479 63.666 150.247 63.144 150.247 62.738C150.247 62.274 150.421 61.926 151.175 61.752C152.451 61.462 154.249 60.824 154.249 57.808V15.062C154.249 13.438 153.611 12.974 152.335 12.626C151.697 12.452 151.523 12.104 151.523 11.64C151.523 11.234 151.639 10.828 152.393 10.712C154.655 10.364 158.251 9.378 159.817 7.812C160.165 7.46401 160.281 7.40601 160.571 7.40601C161.035 7.40601 161.209 7.58 161.209 7.98601V57.808Z" fill="black"/>
<path d="M185.326 26.256C186.254 26.256 186.892 26.778 186.892 27.648C186.892 28.634 186.486 29.156 185.326 29.156H179.294C178.424 29.156 178.018 29.504 178.018 30.2V57.808C178.018 60.824 179.816 61.462 181.092 61.752C181.846 61.926 182.02 62.274 182.02 62.738C182.02 63.144 181.788 63.666 181.034 63.666C180.396 63.666 177.554 63.318 174.538 63.318C171.522 63.318 168.68 63.666 168.042 63.666C167.288 63.666 167.056 63.144 167.056 62.738C167.056 62.274 167.23 61.926 167.984 61.752C169.26 61.462 171.058 60.824 171.058 57.808V30.258C171.058 29.504 170.71 29.214 170.014 29.214L168.39 29.272C167.81 29.272 167.346 28.866 167.346 28.17C167.346 27.648 167.52 27.3 168.158 27.068L170.13 26.314C170.768 26.024 171.058 25.618 171.058 25.096V23.008C171.058 14.018 176.336 7.46401 183.644 7.46401C188.574 7.46401 191.764 10.596 191.764 14.134C191.764 15.874 190.778 16.976 189.328 16.976C187.994 16.976 187.008 16.454 186.37 14.772C185.326 11.93 184.514 10.074 182.542 10.074C180.048 10.074 178.018 13.38 178.018 23.356V25.212C178.018 25.966 178.482 26.256 179.352 26.256H185.326Z" fill="black"/>
<defs>
<clipPath id="clip0_4861_1125">
<rect width="72" height="72" fill="white" transform="translate(0.23584)"/>
</clipPath>
</defs>
</svg>
