<?xml version="1.0" encoding="UTF-8"?>
<svg id="Layer_1" data-name="Layer 1" xmlns="http://www.w3.org/2000/svg" xmlns:xlink="http://www.w3.org/1999/xlink" viewBox="0 0 732 191.32">
  <defs>
    <style>
      .cls-1 {
        fill: #2f3e2c;
      }

      .cls-2 {
        fill: url(#linear-gradient);
        fill-rule: evenodd;
      }
    </style>
    <linearGradient id="linear-gradient" x1="95.23" y1="192.33" x2="95.52" y2="1.02" gradientTransform="translate(0 192.33) scale(1 -1)" gradientUnits="userSpaceOnUse">
      <stop offset="0" stop-color="#1d9e49"/>
      <stop offset=".49" stop-color="#3cb44a"/>
      <stop offset="1" stop-color="#00b0c7"/>
    </linearGradient>
  </defs>
  <path class="cls-2" d="M0,95.66C0,42.83,42.7,0,95.37,0s95.38,42.83,95.38,95.66c0,18.71-5.36,36.17-14.62,50.91-2.55,4.06-5.4,7.92-8.51,11.54l-72.12-72.33-62.02,62.2-10.24,10.27c-3.13-3.61-5.98-7.46-8.53-11.52C5.39,131.95,0,114.44,0,95.66ZM165.2,132.94l.87-1.75h0c5.47-10.94,8.36-23.23,8.36-35.52,0-43.72-35.47-79.29-79.06-79.29S16.32,51.94,16.32,95.66c0,12.36,2.92,24.7,8.44,35.69l.88,1.74L95.5,63.03l69.7,69.91ZM95.38,191.32c23.74,0,45.47-8.7,62.16-23.1h0s-62.04-62.22-62.04-62.22l-62.15,62.33c16.67,14.34,38.28,23,62.03,23Z"/>
  <polygon class="cls-1" points="227.25 146.65 302.66 44.09 228.26 44.09 228.26 23.98 330.82 23.98 330.82 42.08 255.4 144.64 331.82 144.64 331.82 164.75 227.25 164.75 227.25 146.65"/>
  <path class="cls-1" d="M341.87,23.98h22.12v21.11h-22.12v-21.11ZM342.88,64.2h20.11v100.55h-20.11v-100.55Z"/>
  <path class="cls-1" d="M375.06,64.2h17.1l2.01,9.05h1.01c3.42-3.82,6.64-9.05,19.1-9.05h18.1v18.1h-16.09c-14.07,0-21.11,7.04-21.11,20.92v61.54h-20.11v-100.55Z"/>
  <path class="cls-1" d="M527.89,129.56c-3.22,15.08-16.09,37.21-46.25,37.21s-50.28-21.12-50.28-52.29,21.12-52.29,50.28-52.29,43.03,22.32,46.25,36.2h-20.11c-3.22-9.05-10.86-18.1-26.14-18.1-17.09,0-30.17,13.27-30.17,34.19s13.07,34.19,30.17,34.19c16.09,0,23.93-11.06,26.14-19.1h20.11Z"/>
  <path class="cls-1" d="M537.94,64.2h20.11v60.33c0,13.07,10.25,24.13,24.13,24.13,15.08,0,26.14-11.06,26.14-24.13v-60.33h20.11v100.55h-18.1l-2.01-10.05h-1.01c-2.21,2.21-4.62,4.22-7.44,6.03-4.83,3.02-12.26,6.03-21.72,6.03-24.13,0-40.22-15.89-40.22-42.23v-60.33Z"/>
  <path class="cls-1" d="M641.51,23.98h22.12v21.11h-22.12v-21.11ZM642.51,64.2h20.11v100.55h-20.11v-100.55Z"/>
  <path class="cls-1" d="M688.76,83.3h-16.09v-19.1h16.09v-28.15h20.11v28.15h23.12v19.1h-23.12v57.31c0,4.02,2.01,6.03,6.03,6.03h17.09v18.1h-21.11c-14.28,0-22.12-8.04-22.12-21.11v-60.33Z"/>
</svg>