<?xml version="1.0" encoding="UTF-8" standalone="no"?>
<!-- Generator: Adobe Illustrator 24.3.0, SVG Export Plug-In . SVG Version: 6.00 Build 0)  -->

<svg
   version="1.1"
   id="圖層_1"
   x="0px"
   y="0px"
   viewBox="0 0 5669.29 1700.79"
   style="enable-background:new 0 0 5669.29 1700.79;"
   xml:space="preserve"
   xmlns="http://www.w3.org/2000/svg"
   xmlns:svg="http://www.w3.org/2000/svg"><defs
   id="defs11" />
<style
   type="text/css"
   id="style1">
	.st0{fill:#7B2781;}
	.st1{fill-rule:evenodd;clip-rule:evenodd;fill:#DD3F13;}
</style>
<g
   id="g11">
	<g
   id="g9">
		<path
   class="st0"
   d="M268.11,950.14l88.56-142.77h118.99c14.16,0,28.92,0,44.28,0c15.33,0,28.68,0.54,40.02,1.64    c-6.61-9.96-14.29-22.54-23.01-37.77c-8.76-15.2-17.14-29.45-25.16-42.74l-85.01-146.93L204.37,950.14H30.8l303.9-502.22    c9.93-16.04,22.41-30.43,37.54-43.17c15.13-12.71,34.25-19.09,57.4-19.09c22.17,0,40.73,5.94,55.59,17.85    c14.89,11.91,27.51,26.7,37.91,44.42L819.2,950.14H268.11z"
   id="path1" />
		<path
   class="st0"
   d="M1322.87,616.42c58.1,0,102.25,12.61,132.47,37.77c30.23,25.19,45.32,63.23,45.32,114.16    c0,28.21-3.76,53.67-11.34,76.35c-7.55,22.71-19.59,41.8-36.1,57.3c-16.54,15.5-37.67,27.37-63.4,35.69    c-25.76,8.29-56.56,12.45-92.45,12.45h-441.3l94.2-142.77h358.44c17.48,0,30.23-3.19,38.24-9.56    c8.02-6.34,12.04-16.74,12.04-31.13s-4.03-24.62-12.04-30.69c-8.02-6.11-20.77-9.16-38.24-9.16h-257.84    c-30.73,0-57.16-3.86-79.34-11.61c-22.21-7.75-40.62-18.55-55.25-32.37c-14.66-13.82-25.53-30.56-32.61-50.22    c-7.08-19.66-10.6-41.36-10.6-65.18c0-26,3.89-49.65,11.67-70.98c7.78-21.27,19.83-39.42,36.13-54.35    c16.3-14.96,37.3-26.57,63.03-34.89c25.73-8.29,56.56-12.45,92.45-12.45h411.55l-94.2,144.45h-328.69    c-17.01,0-29.65,2.78-37.91,8.29c-8.25,5.54-12.38,15.5-12.38,29.89s4.13,24.49,12.38,30.29c8.25,5.84,20.9,8.72,37.91,8.72    H1322.87z"
   id="path2" />
		<path
   class="st0"
   d="M1726.67,950.14h-146.63V394.78h146.63V950.14z"
   id="path3" />
		<path
   class="st0"
   d="M2030.53,950.14l88.56-142.77h118.99c14.16,0,28.92,0,44.28,0c15.33,0,28.68,0.54,40.02,1.64    c-6.61-9.96-14.29-22.54-23.01-37.77c-8.76-15.2-17.14-29.45-25.16-42.74l-85.01-146.93l-222.41,368.57h-173.57l303.9-502.22    c9.93-16.04,22.41-30.43,37.54-43.17c15.13-12.71,34.25-19.09,57.4-19.09c22.17,0,40.73,5.94,55.59,17.85    c14.89,11.91,27.51,26.7,37.91,44.42l296.08,502.22H2030.53z"
   id="path4" />
		<path
   class="st0"
   d="M2812.63,394.78l213.22,368.57l222.41-368.57h172.83l-303.16,502.22c-10.4,16.07-23.15,30.46-38.28,43.17    c-15.1,12.71-33.98,19.09-56.66,19.09c-22.21,0-40.73-5.94-55.59-17.85c-14.89-11.88-27.54-26.7-37.91-44.42l-296.82-502.22    H2812.63z"
   id="path5" />
		<path
   class="st0"
   d="M3634.34,950.14h-146.63V394.78h146.63V950.14z"
   id="path6" />
		<path
   class="st0"
   d="M4176.92,616.42c58.1,0,102.25,12.61,132.47,37.77c30.23,25.19,45.32,63.23,45.32,114.16    c0,28.21-3.76,53.67-11.34,76.35c-7.55,22.71-19.59,41.8-36.1,57.3c-16.54,15.5-37.67,27.37-63.4,35.69    c-25.76,8.29-56.56,12.45-92.45,12.45h-441.3l94.2-142.77h358.44c17.48,0,30.23-3.19,38.24-9.56    c8.02-6.34,12.04-16.74,12.04-31.13s-4.03-24.62-12.04-30.69c-8.02-6.11-20.77-9.16-38.24-9.16h-257.84    c-30.73,0-57.16-3.86-79.34-11.61c-22.21-7.75-40.62-18.55-55.25-32.37c-14.66-13.82-25.53-30.56-32.61-50.22    c-7.08-19.66-10.6-41.36-10.6-65.18c0-26,3.89-49.65,11.67-70.98c7.78-21.27,19.83-39.42,36.13-54.35    c16.3-14.96,37.3-26.57,63.03-34.89c25.73-8.29,56.56-12.45,92.45-12.45h411.55l-94.2,144.45h-328.69    c-17.01,0-29.65,2.78-37.91,8.29c-8.25,5.54-12.38,15.5-12.38,29.89s4.13,24.49,12.38,30.29c8.25,5.84,20.9,8.72,37.91,8.72    H4176.92z"
   id="path7" />
		<path
   class="st0"
   d="M4978.11,394.78l-94.94,144.45h-169.31v410.91h-146.63V539.23h-222.41l94.94-144.45H4978.11z"
   id="path8" />
		<path
   class="st0"
   d="M5085.79,950.14l88.56-142.77h118.99c14.16,0,28.92,0,44.28,0c15.33,0,28.68,0.54,40.02,1.64    c-6.61-9.96-14.29-22.54-23.01-37.77c-8.76-15.2-17.14-29.45-25.16-42.74l-85.01-146.93l-222.41,368.57h-173.57l303.9-502.22    c9.93-16.04,22.41-30.43,37.54-43.17c15.13-12.71,34.25-19.09,57.4-19.09c22.17,0,40.73,5.94,55.59,17.85    c14.89,11.91,27.51,26.7,37.91,44.42l296.08,502.22H5085.79z"
   id="path9" />
	</g>
	<g
   id="g10">
		<path
   class="st1"
   d="M4925.23,1042.44c-424.53,199-1231.15,298.49-2165.13,298.49c-849.07,0-1655.69-99.49-2080.22-298.49    c551.89,99.5,1273.6,149.25,2080.22,149.25C3609.17,1191.68,4373.34,1141.93,4925.23,1042.44"
   id="path10" />
	</g>
</g>
</svg>
