<svg xmlns="http://www.w3.org/2000/svg" fill="none" viewBox="0 0 210 74" height="74" width="210">
<path fill="#2B3330" d="M64.0821 26.2576C65.3802 27.5683 67.3461 27.9546 69.0436 27.2329C70.7373 26.5022 71.8365 24.837 71.8424 22.9923C71.8365 20.9255 70.4464 19.1181 68.4499 18.5821C66.4458 18.0423 64.3315 18.9337 63.3188 20.7448C62.3405 22.5517 62.6497 24.7848 64.0821 26.2576Z" clip-rule="evenodd" fill-rule="evenodd"></path>
<path fill="#2B3330" d="M70.953 30.7539H63.6592V57.9784H70.953V30.7539Z"></path>
<path fill="#2B3330" d="M86.8978 31.39C85.5917 32.1923 84.546 33.3559 83.887 34.74L83.3781 30.7963H77.3989V58.0208H84.6079V43.8997C84.6079 41.4401 84.9472 39.6591 85.8801 38.3869C86.7155 37.1678 88.1386 36.4884 89.6118 36.6059C90.4374 36.6059 91.241 36.8735 91.9017 37.3692C92.4598 37.7928 92.8864 38.3661 93.1315 39.023C93.3918 39.7465 93.5492 40.503 93.5979 41.2705C93.6403 42.0762 93.6403 43.2212 93.6403 44.663V58.0208H100.934V43.6452C100.934 40.9737 101.273 39.7439 102.164 38.4717C103.138 37.2543 104.635 36.5766 106.192 36.6483C107.021 36.6703 107.822 36.9523 108.482 37.454C109.017 37.8993 109.414 38.4874 109.627 39.1502C109.874 39.8461 110.017 40.5751 110.051 41.3129C110.094 42.1186 110.136 43.2636 110.136 44.7054V58.0632H117.345V42.9243C117.359 41.4372 117.288 39.9504 117.133 38.4717C117.001 37.3221 116.716 36.1954 116.285 35.1217C115.651 33.5107 114.503 32.1545 113.02 31.2627C111.617 30.4965 110.037 30.1161 108.44 30.1602C106.477 30.0678 104.531 30.5541 102.842 31.5596C101.524 32.4514 100.469 33.6816 99.7892 35.1217C99.1709 33.7409 98.207 32.5434 96.9904 31.6444C95.5456 30.6483 93.8257 30.1292 92.0713 30.1602C90.2576 29.977 88.435 30.4104 86.8978 31.39Z" clip-rule="evenodd" fill-rule="evenodd"></path>
<path fill="#2B3330" d="M124.088 58.0213H131.254V52.975C131.372 51.4365 131.867 49.9506 132.696 48.6496C133.081 47.7672 133.535 46.9161 134.053 46.1053C134.479 45.4268 134.946 44.7754 135.453 44.1546L136.301 42.8824C137.106 43.8578 144.612 56.6643 145.248 57.9789H153.56C152.33 55.477 142.534 39.914 141.135 37.7937L153.093 21.6371H144.697C144.697 21.6371 131.297 39.3628 131.297 39.914V21.5947H124.088V58.0213Z" clip-rule="evenodd" fill-rule="evenodd"></path>
<path fill="#2B3330" d="M202.751 30.542C201.775 34.3161 197.874 47.5467 196.814 50.6847C195.33 45.5961 191.98 33.5528 191.216 30.542H184.135C185.534 35.1218 190.495 53.3139 190.75 54.2044C191.004 55.0949 191.174 55.9855 191.471 56.9608C191.767 57.9098 191.938 58.8937 191.98 59.8868C191.991 61.1441 191.52 62.3578 190.665 63.2793C189.7 64.269 188.356 64.7944 186.976 64.7211L182.608 64.509V70.8699L187.485 71.0819H188.036C189.425 71.0645 190.797 70.7613 192.064 70.1914C193.29 69.6223 194.408 68.848 195.372 67.9015C196.333 66.9427 197.16 65.8588 197.832 64.6787C198.51 63.4913 199.146 62.2615 199.697 61.0318C201.914 55.9435 203.84 50.7335 205.465 45.4264C207.203 40.2953 208.518 35.6307 210.002 30.542H202.751Z" clip-rule="evenodd" fill-rule="evenodd"></path>
<path fill="#2B3330" d="M166.235 52.7193C167.51 52.7685 168.786 52.7116 170.052 52.5497C173.317 52.0832 176.582 51.1079 179.211 49.1148V55.1364C177.751 56.3577 176.021 57.2151 174.165 57.6384C171.893 58.1175 169.575 58.3453 167.253 58.3169C165.268 58.3618 163.294 58.0162 161.443 57.2991C159.858 56.6643 158.437 55.6784 157.288 54.4155C156.141 53.1302 155.287 51.6108 154.786 49.9629C154.194 48.0538 153.894 46.0667 153.895 44.0685C153.846 42.0559 154.192 40.0535 154.913 38.1741C155.552 36.5046 156.535 34.9877 157.797 33.7215C158.987 32.4171 160.449 31.3896 162.08 30.7107C163.975 29.9864 165.987 29.6128 168.016 29.6081C169.638 29.5602 171.256 29.7752 172.808 30.2442C175.212 31.0355 177.208 32.7415 178.363 34.9937C178.878 36.0211 179.154 37.1517 179.169 38.3013C179.243 39.3233 179.099 40.3499 178.745 41.3121C178.336 42.1903 177.726 42.9604 176.964 43.5596C176.087 44.2589 175.098 44.8038 174.038 45.171C172.692 45.6502 171.318 46.0467 169.925 46.3584L163.14 47.8426C161.783 48.1819 161.698 48.7331 161.783 49.6237C161.831 49.9943 161.946 50.3535 162.122 50.6838C162.353 51.0769 162.672 51.4111 163.055 51.6591C164.009 52.274 165.103 52.6387 166.235 52.7193ZM161.112 42.9901C161.29 43.1602 161.542 43.2306 161.783 43.178L168.101 41.6938C170.646 41.0577 171.96 39.9975 171.918 38.4285C171.853 37.5041 171.327 36.675 170.518 36.2234C169.757 35.7485 168.87 35.5123 167.974 35.5449C166.019 35.5432 164.16 36.3947 162.885 37.8773C161.826 39.1511 161.137 40.6913 160.892 42.3299C160.851 42.5728 160.934 42.8205 161.112 42.9901Z" clip-rule="evenodd" fill-rule="evenodd"></path>
<path fill="#2B3330" d="M38.7229 56.9177C38.6992 64.418 33.7763 71.021 26.5953 73.1854C19.4143 75.3498 11.6621 72.5663 7.49786 66.3288C3.33361 60.0909 3.73519 51.8642 8.48761 46.0618C9.62918 44.6514 11.6324 44.2905 13.1947 45.2137L17.9441 48.0125C16.9264 49.0302 15.951 50.0904 15.0181 51.1929C12.4721 54.135 12.1701 58.4028 14.2764 61.6739C16.3823 64.9451 20.3926 66.4365 24.1243 65.3365C27.856 64.2365 30.4165 60.8084 30.4114 56.9177C30.411 54.0197 28.9836 51.3074 26.5949 49.6663H26.5525L25.5347 49.0726L20.234 45.9346L20.1916 45.8922L13.4067 41.9061L10.6927 40.2946C10.5655 40.2098 10.4807 40.1674 10.3535 40.0826C9.97012 39.8672 9.60204 39.6263 9.25092 39.3617C1.60261 34.0237 -1.76229 24.3836 0.903759 15.4457C3.56981 6.50739 11.6655 0.285611 20.9884 0.00954922C30.3118 -0.266513 38.7611 5.4659 41.9513 14.2303C45.1415 22.9948 42.3529 32.8172 35.0336 38.5984C33.8314 39.5593 32.1606 39.6776 30.8355 38.8952L23.2024 34.485V24.9861H26.7221V15.2752H23.2024V11.2043H17.3504V34.5699L23.2024 37.9623L29.6057 41.694C29.7083 41.7436 29.8076 41.8005 29.9025 41.8636L30.1994 42.0333C30.369 42.1181 30.4962 42.2029 30.6658 42.2877C35.6905 45.4524 38.7344 50.9796 38.7229 56.9177Z" clip-rule="evenodd" fill-rule="evenodd"></path>
</svg>
