<svg width="512" height="512" viewBox="0 0 512 512" fill="none" xmlns="http://www.w3.org/2000/svg">
<g clip-path="url(#clip0_11_1320)">
<path d="M256.319 512C397.704 512 512.319 397.385 512.319 256C512.319 114.615 397.704 0 256.319 0C114.934 0 0.319336 114.615 0.319336 256C0.319336 397.385 114.934 512 256.319 512Z" fill="url(#paint0_linear_11_1320)"/>
<path d="M425.708 148.325C436.954 300.64 339.046 372.63 251.275 380.308C169.673 387.444 92.8622 337.303 86.1236 260.265C80.5649 196.619 119.902 169.522 150.808 166.822C182.595 164.035 209.308 185.956 211.626 212.498C213.857 238.016 197.935 249.632 186.861 250.598C178.103 251.366 167.085 246.049 166.091 234.633C165.237 224.824 168.962 223.488 168.052 213.067C166.432 194.514 150.254 192.353 141.397 193.121C130.678 194.06 111.23 206.57 113.959 237.732C116.703 269.164 146.841 294.001 186.349 290.546C228.983 286.821 258.667 253.626 260.899 207.068C260.878 204.602 261.398 202.161 262.42 199.916L262.434 199.86C262.893 198.885 263.431 197.948 264.04 197.06C264.951 195.695 266.117 194.188 267.623 192.538C267.638 192.496 267.638 192.496 267.666 192.496C268.76 191.259 270.083 189.923 271.575 188.487C290.199 170.916 357.271 129.475 420.704 142.597C422.045 142.884 423.257 143.597 424.159 144.63C425.061 145.663 425.603 146.959 425.708 148.325Z" fill="white"/>
</g>
<defs>
<linearGradient id="paint0_linear_11_1320" x1="512.013" y1="86.519" x2="17.5951" y2="279.502" gradientUnits="userSpaceOnUse">
<stop stop-color="#0CC5FF"/>
<stop offset="1" stop-color="#007FFF"/>
</linearGradient>
<clipPath id="clip0_11_1320">
<rect width="512" height="512" fill="white"/>
</clipPath>
</defs>
</svg>
